<svg id="chancho_icon" data-name="chancho_icon" xmlns="http://www.w3.org/2000/svg" viewBox="0 0 25 20"><defs><style>.cls-1{fill:#0c0c0c;}.cls-2{fill:#f7bacf;}.cls-3{fill:#c191a3;}</style></defs><title>chancho_icono</title><ellipse class="cls-1" cx="20.27" cy="2.7" rx="1.96" ry="2.7"/><ellipse class="cls-1" cx="4.73" cy="2.7" rx="1.96" ry="2.7"/><path class="cls-2" d="M12.5,0C3.34,0,0,12.9,0,12.9,0,16.8,3.84,20,8.53,20a28.46,28.46,0,0,1,4-.73,28.46,28.46,0,0,1,4,.73C21.16,20,25,16.8,25,12.9,25,12.9,21.66,0,12.5,0ZM8.83,11.79c-.58,2.15-2,3.64-3.1,3.34s-1.57-2.3-1-4.45,2-3.64,3.1-3.33S9.41,9.64,8.83,11.79Zm10.44,3.34c-1.13.3-2.52-1.19-3.1-3.34s-.14-4.14,1-4.44,2.52,1.19,3.1,3.33S20.4,14.82,19.27,15.13Z"/><path class="cls-3" d="M8.83,11.79c-.58,2.15-2,3.64-3.1,3.34s-1.57-2.3-1-4.45,2-3.64,3.1-3.33S9.41,9.64,8.83,11.79Z"/><path class="cls-3" d="M19.27,15.13c-1.13.3-2.52-1.19-3.1-3.34s-.14-4.14,1-4.44,2.52,1.19,3.1,3.33S20.4,14.82,19.27,15.13Z"/></svg>